<svg width="40" height="40" viewBox="0 0 40 40" fill="none" xmlns="http://www.w3.org/2000/svg">
<g clip-path="url(#clip0_1145_9053)">
<path d="M39.9998 21.6316C39.9998 21.0662 39.7741 20.5241 39.3722 20.1243C38.9703 19.7246 38.4253 19.5 37.857 19.5H36.4284C36.239 19.5 36.0573 19.5749 35.9233 19.7081C35.7894 19.8414 35.7141 20.0221 35.7141 20.2105V30.1579C35.7141 30.3463 35.7894 30.5271 35.9233 30.6603C36.0573 30.7936 36.239 30.8684 36.4284 30.8684H37.857C38.4253 30.8684 38.9703 30.6438 39.3722 30.2441C39.7741 29.8443 39.9998 29.3022 39.9998 28.7368V21.6316Z" fill="url(#paint0_linear_1145_9053)"/>
<path d="M2.85718 20.2106H5.00004V23.0527H2.85718V20.2106Z" fill="url(#paint1_linear_1145_9053)"/>
<path d="M32.8572 22.3421H34.2857V28.0263H32.8572V22.3421Z" fill="url(#paint2_linear_1145_9053)"/>
<path d="M1.42857 15.9473C1.42857 15.7589 1.35332 15.5782 1.21936 15.4449C1.08541 15.3117 0.903726 15.2368 0.714286 15.2368C0.524845 15.2368 0.343164 15.3117 0.209209 15.4449C0.0752549 15.5782 0 15.7589 0 15.9473V27.3158C0 27.5042 0.0752549 27.6849 0.209209 27.8182C0.343164 27.9514 0.524845 28.0263 0.714286 28.0263C0.903726 28.0263 1.08541 27.9514 1.21936 27.8182C1.35332 27.6849 1.42857 27.5042 1.42857 27.3158V15.9473Z" fill="url(#paint3_linear_1145_9053)"/>
<path d="M30.7142 16.6579H28.5713C28.003 16.6579 27.458 16.4333 27.0561 16.0335C26.6542 15.6338 26.4285 15.0916 26.4285 14.5263V13.1052C26.4285 12.9168 26.3532 12.7361 26.2193 12.6028C26.0853 12.4696 25.9036 12.3947 25.7142 12.3947H12.1428C11.9533 12.3947 11.7716 12.4696 11.6377 12.6028C11.5037 12.7361 11.4285 12.9168 11.4285 13.1052C11.4285 13.6706 11.2027 14.2127 10.8008 14.6125C10.399 15.0122 9.85393 15.2368 9.28561 15.2368H7.14275C6.95331 15.2368 6.77163 15.3117 6.63768 15.4449C6.50372 15.5782 6.42847 15.7589 6.42847 15.9473V28.0263C6.42847 28.2147 6.50372 28.3955 6.63768 28.5287C6.77163 28.662 6.95331 28.7368 7.14275 28.7368H10.1228C10.4042 28.7362 10.6831 28.791 10.9431 28.8982C11.2031 29.0054 11.4392 29.1629 11.6378 29.3614L15.0863 32.7918C15.2202 32.9251 15.4019 32.9999 15.5913 33H30.7142C30.9036 33 31.0853 32.9251 31.2193 32.7919C31.3532 32.6586 31.4285 32.4779 31.4285 32.2894V17.3684C31.4285 17.18 31.3532 16.9992 31.2193 16.866C31.0853 16.7327 30.9036 16.6579 30.7142 16.6579Z" fill="url(#paint4_linear_1145_9053)"/>
<path d="M17.1428 8.84204H21.4285V10.9736H17.1428V8.84204Z" fill="url(#paint5_linear_1145_9053)"/>
<path d="M26.4287 6H12.143C11.9536 6 11.7719 6.07486 11.6379 6.20811C11.504 6.34136 11.4287 6.52208 11.4287 6.71053C11.4287 6.89897 11.504 7.07969 11.6379 7.21294C11.7719 7.34619 11.9536 7.42105 12.143 7.42105H26.4287C26.6182 7.42105 26.7998 7.34619 26.9338 7.21294C27.0677 7.07969 27.143 6.89897 27.143 6.71053C27.143 6.52208 27.0677 6.34136 26.9338 6.20811C26.7998 6.07486 26.6182 6 26.4287 6Z" fill="url(#paint6_linear_1145_9053)"/>
</g>
<defs>
<linearGradient id="paint0_linear_1145_9053" x1="35.7141" y1="19.5" x2="41.2374" y2="20.1369" gradientUnits="userSpaceOnUse">
<stop stop-color="#2836D7"/>
<stop offset="1" stop-color="#8E93D7"/>
</linearGradient>
<linearGradient id="paint1_linear_1145_9053" x1="2.85718" y1="20.2106" x2="5.51419" y2="20.8234" gradientUnits="userSpaceOnUse">
<stop stop-color="#2836D7"/>
<stop offset="1" stop-color="#8E93D7"/>
</linearGradient>
<linearGradient id="paint2_linear_1145_9053" x1="32.8572" y1="22.3421" x2="34.7118" y2="22.4847" gradientUnits="userSpaceOnUse">
<stop stop-color="#2836D7"/>
<stop offset="1" stop-color="#8E93D7"/>
</linearGradient>
<linearGradient id="paint3_linear_1145_9053" x1="0" y1="15.2368" x2="1.86339" y2="15.3005" gradientUnits="userSpaceOnUse">
<stop stop-color="#2836D7"/>
<stop offset="1" stop-color="#8E93D7"/>
</linearGradient>
<linearGradient id="paint4_linear_1145_9053" x1="6.42847" y1="12.3947" x2="35.1233" y2="23.0444" gradientUnits="userSpaceOnUse">
<stop stop-color="#2836D7"/>
<stop offset="1" stop-color="#8E93D7"/>
</linearGradient>
<linearGradient id="paint5_linear_1145_9053" x1="17.1428" y1="8.84204" x2="21.2035" y2="11.3395" gradientUnits="userSpaceOnUse">
<stop stop-color="#2836D7"/>
<stop offset="1" stop-color="#8E93D7"/>
</linearGradient>
<linearGradient id="paint6_linear_1145_9053" x1="11.4287" y1="6" x2="13.078" y2="11.579" gradientUnits="userSpaceOnUse">
<stop stop-color="#2836D7"/>
<stop offset="1" stop-color="#8E93D7"/>
</linearGradient>
<clipPath id="clip0_1145_9053">
<rect width="40" height="40" fill="white"/>
</clipPath>
</defs>
</svg>
