<svg width="110" height="44" viewBox="0 0 110 44" fill="none" xmlns="http://www.w3.org/2000/svg">
<path d="M55 7C32.7996 7 15 13.6547 15 21.9982C15 30.2916 32.9463 37 55 37C77.0572 37 95 30.2701 95 21.9982C95 13.7263 77.0572 7 55 7Z" fill="#9D9FBD"/>
<path d="M70.7563 25.1753C70.767 25.2468 70.8564 25.3112 70.9423 25.3434C70.9781 25.3542 70.9924 25.3756 70.9566 25.4508C70.7062 25.9803 70.4808 26.288 70.1695 26.7531C69.8833 27.1824 69.5577 27.5152 69.1677 27.8372C68.5738 28.3273 67.7545 28.8568 67.0747 28.5026C66.7742 28.3452 66.6454 27.923 66.6489 27.5831C66.6632 26.6207 67.0926 25.6368 67.8797 24.6672C68.8421 23.4865 69.9048 22.8711 70.5988 23.2039C71.3216 23.5509 71.0926 24.3846 70.7706 25.0393C70.7484 25.0811 70.7432 25.1298 70.7563 25.1753ZM78.4987 17.6976C78.5488 17.6046 78.4987 17.5366 78.3806 17.5366H76.3591C76.2089 17.5366 76.1301 17.5581 76.0622 17.6976C75.8296 18.1413 73.0031 22.3738 72.4772 23.1967C72.3913 23.322 72.2804 23.3041 72.2697 23.161C72.216 22.6744 71.7938 22.1126 71.1284 21.8443C70.6489 21.6507 70.1263 21.589 69.6149 21.6654C68.6847 21.7942 67.8582 22.2844 67.1284 22.8354C66.0336 23.669 65.089 24.7495 63.8654 25.5509C63.1963 25.9838 62.284 26.3631 61.6722 25.7978C61.1212 25.2862 61.182 24.1448 62.03 23.2647C62.1194 23.1717 62.2268 23.2504 62.2089 23.3327C62.1632 23.5241 62.1689 23.7242 62.2254 23.9127C62.282 24.1012 62.3873 24.2714 62.5309 24.406C62.8994 24.7352 63.4253 24.7745 63.8797 24.5491C64.1339 24.4166 64.3521 24.2243 64.5154 23.9887C64.6787 23.7531 64.7822 23.4813 64.8171 23.1967C64.8471 22.9873 64.8336 22.774 64.7775 22.57C64.7213 22.3661 64.6237 22.1759 64.4908 22.0114C64.3578 21.8469 64.1923 21.7115 64.0047 21.6138C63.8171 21.5161 63.6113 21.4582 63.4003 21.4436C62.699 21.3935 62.0228 21.6368 61.3645 22.1806C61.0539 22.4313 60.7836 22.7281 60.5631 23.0608C60.4915 23.1609 60.3878 23.1681 60.3913 23.025C60.4235 21.8729 59.9477 21.2254 58.996 21.2039C58.259 21.186 57.4683 21.5867 56.8529 22.0769C56.1802 22.6171 55.5899 23.3363 54.9566 24.0089C54.8815 24.0948 54.8135 24.0912 54.7885 23.9302C54.792 23.2151 54.5976 22.513 54.2268 21.9016C54.1612 21.8065 54.0629 21.7389 53.9507 21.7119C53.8385 21.6848 53.7202 21.7001 53.6185 21.7549C53.5148 21.8085 53.1606 21.9695 52.903 22.1806C52.7742 22.288 52.7241 22.4382 52.7813 22.635C53.1212 23.7728 53.0461 25.0679 52.5845 26.1627C52.1588 27.1645 51.3359 28.0697 50.3663 28.3738C49.7294 28.5778 49.064 28.4776 48.6525 27.9087C48.0908 27.1287 48.3162 25.7728 49.157 24.6422C49.9012 23.6475 50.9745 23.0178 52.0443 22.61C52.1695 22.5635 52.1981 22.4812 52.1624 22.3738L51.9727 21.8515C51.8725 21.5867 51.5971 21.5474 51.2643 21.5831C50.4844 21.6726 49.7831 21.9409 49.089 22.3094C47.2751 23.2826 46.3627 25.1645 45.9656 26.1735C45.8306 26.551 45.6388 26.9057 45.3967 27.2253C45.1105 27.5831 44.7527 27.9123 44.0944 28.4883C44.0585 28.5211 44.034 28.5643 44.0243 28.6119C44.0147 28.6595 44.0204 28.709 44.0407 28.7531C44.1754 28.9984 44.3454 29.2226 44.5452 29.4186C44.6525 29.4722 44.7777 29.3971 44.8278 29.3613C45.2858 29.05 45.8368 28.5563 46.1051 28.22C46.1981 28.1055 46.2983 28.1556 46.3484 28.3273C46.4697 28.7741 46.6988 29.1843 47.0157 29.5218C47.3327 29.8593 47.7276 30.1138 48.1659 30.2629C49.8296 30.8246 51.5577 30.0125 52.86 28.5957C53.6865 27.7012 53.987 27.118 54.3055 26.728C54.8421 26.059 55.9048 24.567 57.1677 23.6118C57.6328 23.2576 58.1802 22.9892 58.4557 23.1681C58.6776 23.3112 58.7491 23.644 58.3949 24.2915C57.1069 26.6457 55.2107 29.4078 54.86 30.0804C54.7956 30.1949 54.8529 30.288 54.9745 30.288H56.928C57.0318 30.2808 57.0783 30.2343 57.1284 30.1627C58.1158 28.6135 59.0461 27.1395 60.0443 25.6189C60.1015 25.5259 60.1516 25.5974 60.1516 25.6368C60.1767 25.9874 60.259 26.4704 60.4736 26.7889C60.6283 27.0488 60.8485 27.2636 61.1122 27.4118C61.3759 27.5599 61.6738 27.6363 61.9763 27.6332C62.3959 27.639 62.8115 27.5509 63.1928 27.3756C63.6078 27.2218 63.9441 27.0214 64.1946 26.8389C64.3448 26.7352 64.3734 26.9105 64.3663 26.9355C64.1373 28.1627 64.42 29.6189 65.6436 30.2271C67.1033 30.9427 68.7098 29.9338 69.6364 29.0178C69.7259 28.9284 69.8225 28.9391 69.8332 29.1287C69.8547 29.4794 70.0121 29.8908 70.2983 30.1842C71.0711 30.9606 72.6346 30.6493 74.2017 29.4364C75.2107 28.6601 76.2625 27.5617 77.2142 26.3989C77.25 26.3559 77.2786 26.2844 77.2071 26.2092C77.064 26.059 76.8529 25.8872 76.7098 25.7513C76.6454 25.694 76.5488 25.7119 76.4951 25.7513C75.5183 26.6815 74.6382 27.737 73.3717 28.6135C72.9423 28.9105 72.2625 29.1502 71.9548 28.7388C71.8332 28.5778 71.8475 28.3559 71.9656 28.059C72.3341 27.1395 78.191 18.22 78.4987 17.694" fill="white"/>
<path d="M50.9351 18.7744C50.9601 18.9068 51.0138 18.9318 51.0746 18.9175C51.4083 18.8267 51.698 18.6183 51.8903 18.3308C52.0692 18.0732 52.1515 17.7011 51.9762 17.5508C51.8188 17.4184 51.5647 17.4542 51.3751 17.6224C51.214 17.7644 51.0898 17.9435 51.0132 18.1442C50.9365 18.3448 50.9097 18.5611 50.9351 18.7744ZM36.0048 30.2556C33.8224 30.2699 31.8975 28.9211 31.6757 26.5812C31.548 25.3644 31.8982 24.1456 32.6524 23.1823C33.3036 22.3343 34.4055 21.6331 35.3358 21.4613C35.6363 21.4041 36.0442 21.4399 36.2123 21.6402C36.4771 21.9479 36.402 22.2842 36.1372 22.4202C35.4252 22.7816 34.5701 23.4041 34.1479 24.252C33.9529 24.6124 33.8602 25.0192 33.8798 25.4285C33.8993 25.8378 34.0304 26.2339 34.2588 26.574C35.1354 27.8978 37.5826 27.9336 39.8546 25.8227C40.4198 25.3039 40.9207 24.8066 41.4324 24.2198C42.4342 23.0749 42.7669 22.6563 44.0978 20.8102C44.1122 20.7887 44.1193 20.7601 44.1122 20.7494C44.1014 20.7243 44.0835 20.7207 44.0442 20.7136C43.1569 20.7422 42.3805 21.007 41.6291 21.5687C41.4145 21.7261 41.0996 21.7046 40.9637 21.4971C40.8134 21.261 40.9207 20.9533 41.1712 20.7816C42.3805 19.9372 43.7043 19.7869 45.0567 19.5579C45.0567 19.5579 45.1497 19.5579 45.2284 19.4613C45.783 18.7458 46.2016 18.1054 46.7919 17.3862C47.3894 16.6563 48.1587 15.9837 48.7454 15.4792C49.5683 14.7744 50.0943 14.5383 50.6274 14.2449C50.7705 14.1733 50.6095 14.0839 50.5665 14.0839C47.5791 13.5222 44.4771 12.7959 41.5111 13.8943C39.4574 14.6599 38.5558 16.2914 38.9887 17.3791C39.2964 18.1519 40.3125 18.2735 41.2642 17.8084C42.0513 17.4256 42.7848 16.7995 43.3036 15.998C43.5898 15.5508 44.2016 15.8728 43.8724 16.6492C43.003 18.6885 41.3465 20.3057 39.3286 20.3737C37.6077 20.4309 36.4986 19.1644 36.5021 17.6045C36.5093 14.5275 39.9368 12.5025 43.5325 12.1984C47.8689 11.8406 51.9762 12.9962 56.2803 13.5186C59.5791 13.9157 62.7418 13.9265 66.0585 13.1608C66.452 13.0785 66.724 13.329 66.7025 13.7225C66.6667 14.295 66.2231 14.846 65.1318 15.4399C63.8903 16.1232 62.5916 16.3308 61.232 16.3415C57.9547 16.3701 54.8993 15.0893 51.7329 14.4023C51.7365 14.5419 51.7758 14.7064 51.6613 14.7959C49.9082 16.0839 48.3232 17.3969 47.2606 19.2395C47.2249 19.2825 47.2463 19.3254 47.3071 19.3182C48.2302 19.2717 49.0567 19.2467 49.919 19.1751C50.0656 19.1644 50.0728 19.1286 50.0621 19.0177C50.0156 18.6775 50.0518 18.3311 50.1676 18.0078C50.2835 17.6846 50.4755 17.394 50.7275 17.1608C51.3 16.6492 52.0156 16.5884 52.4914 16.9605C53.0281 17.3791 52.9816 18.1376 52.6882 18.7029C52.556 18.9517 52.3751 19.1715 52.1563 19.3491C51.9375 19.5267 51.6852 19.6586 51.4145 19.7368C51.4145 19.7368 51.3143 19.7583 51.3286 19.8478C51.3465 19.9909 51.9977 20.3522 52.0513 20.4488C52.105 20.5418 52.0764 20.6814 51.9798 20.7887C51.9415 20.8353 51.8935 20.8729 51.8391 20.8989C51.7847 20.9248 51.7252 20.9385 51.6649 20.939C51.554 20.939 51.486 20.8996 51.3429 20.8209C51.0018 20.6386 50.6983 20.3934 50.4485 20.0982C50.3626 19.9944 50.3197 19.9909 50.1157 20.0052C49.1855 20.0588 47.7329 20.1984 46.7526 20.32C46.5129 20.3486 46.4771 20.3952 46.4306 20.4774C44.8635 23.0606 43.1891 25.8478 41.3501 27.7154C39.3823 29.7154 37.7436 30.2413 36.0048 30.2556Z" fill="white"/>
<path d="M54.9996 9.45415C34.5738 9.45415 18.0192 15.0964 18.0192 22.0051C18.0192 28.9103 34.5738 34.5561 54.9996 34.5561C75.4253 34.5561 91.9799 28.9103 91.9799 22.0051C91.9799 15.0999 75.4217 9.45415 54.9996 9.45415ZM54.9996 35.6939C33.8296 35.6939 16.6704 29.5651 16.6704 22.0051C16.6704 14.4416 33.8296 8.31641 54.9996 8.31641C76.1659 8.31641 93.3251 14.4416 93.3251 22.0051C93.3251 29.5651 76.1659 35.6939 54.9996 35.6939Z" fill="white"/>
</svg>
