<svg width="120" height="48" viewBox="0 0 120 48" fill="none" xmlns="http://www.w3.org/2000/svg">
<path d="M47.2481 18.6453V22.7827H42.5607V18.6476H39.9759V29.5072H42.5607V25.1389H47.2504V29.5072H49.8375V18.6453H47.2481ZM59.3074 18.6453L56.6027 22.9457L53.9025 18.6453H50.8514L55.3148 25.7432V29.505H57.8973V25.7432L62.3607 18.6453H59.3074ZM70.6718 18.6453V26.6033C70.6718 26.9066 70.4455 27.1488 70.1241 27.1488H65.9821V18.6476H63.3973V29.5072H71.034C71.713 29.5072 72.2607 29.3035 72.6591 28.9074C73.0552 28.5091 73.2566 27.9636 73.2566 27.2869V18.6453H70.6718ZM83.2901 18.6453H75.6512V29.505H78.2315V20.9947H82.3825C82.7152 20.9947 82.9257 21.2572 82.9257 21.5379V29.505H85.5105V20.8657C85.5105 20.1867 85.3068 19.6389 84.9152 19.2428C84.5124 18.8445 83.9691 18.6453 83.2901 18.6453ZM95.544 18.6453H87.9052V29.505H95.544C96.2231 29.505 96.7663 29.3013 97.1624 28.9052C97.563 28.5068 97.7621 27.9613 97.7621 27.2846V20.8657C97.7621 20.1867 97.563 19.6389 97.1624 19.2428C96.7663 18.8445 96.2208 18.6453 95.544 18.6453ZM95.1796 21.5583V26.5875C95.1821 26.6609 95.1696 26.734 95.143 26.8025C95.1164 26.871 95.0761 26.9333 95.0247 26.9858C94.9733 27.0383 94.9118 27.0798 94.8439 27.1078C94.776 27.1358 94.7031 27.1498 94.6296 27.1488H90.4854V20.9969H94.6115C94.951 20.9969 95.1774 21.2323 95.1774 21.5583H95.1796ZM102.266 18.6453C101.587 18.6453 101.04 18.8445 100.643 19.2428C100.245 19.6434 100.048 20.1889 100.048 20.8657V29.505H102.624V26.1461H107.318V29.505H109.901V18.6453H102.266ZM107.318 20.9969V23.7945H102.624V21.5447C102.624 21.2776 102.832 20.9947 103.176 20.9947L107.318 20.9969ZM112.415 29.505H115V18.6453H112.415V29.505ZM19.7708 31.6393C27.9302 31.6393 34.5461 28.2511 34.5461 24.0751C34.5461 19.8947 27.9302 16.5087 19.7708 16.5087C11.6136 16.5087 5 19.8924 5 24.0751C5 28.2511 11.6136 31.6371 19.7708 31.6371V31.6393ZM22.5547 27.9251C22.3058 28.4978 21.8825 29.7177 20.9093 30.2043C20.5991 30.346 20.2633 30.423 19.9224 30.4307H19.773C17.0479 30.4307 14.5084 30.0504 12.3854 29.4054L12.3039 29.3737C12.107 29.3081 12.0074 29.2175 12.0074 29.1043C12.0074 29.0093 12.0595 28.9346 12.1296 28.8644L12.2632 28.7467C12.7566 28.3393 14.2323 27.2688 17.014 26.2004C17.9895 25.8292 19.2117 25.3653 20.4905 25.0936C21.2397 24.9375 24.0214 24.512 22.5525 27.9274L22.5547 27.9251ZM30.0171 20.2998C30.0691 20.2093 30.1393 20.1323 30.2661 20.1255C30.334 20.1187 30.429 20.1346 30.5716 20.2251C32.3053 21.2912 33.3352 22.6266 33.3352 24.0729C33.3352 26.678 29.9831 28.921 25.187 29.9011C24.8792 29.9622 24.6733 29.9599 24.6054 29.8829C24.5556 29.8377 24.542 29.7517 24.6054 29.6476C24.6411 29.5843 24.6836 29.5251 24.7321 29.471C27.344 26.3928 29.3335 21.8502 29.8971 20.542C29.9424 20.4515 29.9831 20.3609 30.0171 20.2998ZM17.0344 20.2048C17.2833 19.6344 17.7066 18.4144 18.6798 17.9301C18.9741 17.7829 19.3407 17.7128 19.6644 17.7037H19.8115C22.5412 17.7037 25.0761 18.0794 27.2037 18.729C27.2195 18.7358 27.2693 18.7517 27.2852 18.7607C27.4798 18.8264 27.5794 18.9169 27.5794 19.0278C27.5794 19.1251 27.5274 19.1976 27.4595 19.2655C27.4278 19.2971 27.3848 19.3334 27.3237 19.3832C26.8348 19.7951 25.3568 20.8634 22.5751 21.9294C21.5951 22.3029 20.3751 22.7669 19.1008 23.0362C18.3494 23.1947 15.5654 23.6202 17.0344 20.2048ZM14.3591 18.2401C14.6669 18.1813 14.8706 18.1813 14.9453 18.2583C14.9905 18.308 15.0019 18.3895 14.943 18.4914C14.906 18.5544 14.8628 18.6135 14.814 18.6679C12.2021 21.7484 10.2126 26.2887 9.64444 27.6015C9.6037 27.692 9.5607 27.7825 9.52449 27.8414C9.47469 27.9319 9.40453 28.0111 9.28004 28.0179C9.21214 28.0247 9.11482 28.0043 8.96996 27.9161C7.23621 26.8523 6.21091 25.5169 6.21091 24.0706C6.21091 21.4632 9.5607 19.2202 14.3591 18.2424" fill="#989AAE"/>
</svg>
