<svg width="165" height="60" viewBox="0 0 165 60" fill="none" xmlns="http://www.w3.org/2000/svg">
<path d="M19.755 12.5591H24.7615L19.2411 31.7187H14.7488L13.0442 26.4147L12.3678 22.0307H12.2867L11.5561 26.3879L10.0405 31.7191H5.54788L0 12.5591H5.03331L7.30673 21.7329L7.79385 25.792H7.92919L8.38917 21.76L10.5269 15.0486H14.2074L16.1827 21.7871L16.8052 25.792H16.8862L17.4273 21.7871L19.755 12.5591Z" fill="#32449C"/>
<path d="M31.1231 31.7187H26.2791V12.5591H31.1231V31.7187Z" fill="#32449C"/>
<path d="M36.2929 25.6571C38.2142 27.9845 42.4361 28.0927 42.5711 26.036C42.6254 24.9536 40.8662 24.3311 39.2967 24.1147C36.2115 23.6276 33.3973 21.6791 33.3973 18.0257C33.3973 14.3724 36.8071 12.2886 40.3252 12.2886C42.6525 12.2886 44.8985 12.9382 46.8741 15.3466L43.7078 17.7822C41.7051 15.6444 38.2685 15.7255 38.1874 17.9447C38.2414 18.8646 39.2427 19.406 40.7312 19.7306C44.141 20.3531 47.5508 21.5438 47.3344 26.2528C47.1719 29.9604 43.2753 31.9899 39.757 31.9899C37.4567 31.9899 35.0212 30.8264 33.2349 28.5259L36.2929 25.6571Z" fill="#32449C"/>
<path d="M54.3175 20.0822H62.0839V24.277H54.3175V27.1454H62.7606V31.7191H49.4192V12.5591H62.7606V17.1053H54.3175V20.0822Z" fill="#32449C"/>
<path d="M72.5049 12.5591C76.3475 12.5591 79.947 14.5075 79.947 18.973V25.4134C79.947 29.8245 76.3475 31.7459 72.5049 31.7191H65.3335V12.5591H72.5049ZM72.6674 27.1725C74.318 27.1725 75.0758 26.3337 75.0758 25.0887V19.108C75.0758 17.8631 74.2912 17.0785 72.6674 17.0785H70.2047V27.1725H72.6674Z" fill="#32449C"/>
<path d="M88.3102 25.6301H87.4442V31.7191H82.5459V12.5591H90.2041C94.155 12.5591 97.213 14.3722 97.3212 18.8644C97.3212 22.4096 95.887 24.4123 93.5596 25.143L98.7825 31.7191H92.7479L88.3099 25.6301H88.3102ZM90.2855 21.4625C93.3435 21.4625 93.3435 17.0788 90.2855 17.0788H87.4442V21.4625H90.2855Z" fill="#32449C"/>
<path d="M104.874 31.7187H100.03V12.5591H104.874V31.7187Z" fill="#32449C"/>
<path d="M119.19 12.5317H124.385L117.485 31.6914H113.047L106.146 12.5317H111.342L114.346 21.8951L115.212 26.4413H115.293L116.159 21.922L119.19 12.5317Z" fill="#32449C"/>
<path d="M130.557 20.0822H138.324V24.277H130.557V27.1454H139V31.7191H125.659V12.5591H139V17.1053H130.557V20.0822Z" fill="#32449C"/>
<path d="M11.3086 43.2081V47.6298H9.8236V43.2081H8.28149V41.8135H12.851V43.2081H11.3089H11.3086Z" fill="#32449C"/>
<path d="M16.2938 47.6296H14.8171V41.8213H16.2938V44.0197H17.9674V41.8213H19.4441V47.6296H17.9674V45.4392H16.2938V47.6296Z" fill="#32449C"/>
<path d="M23.2403 44.1016H25.5948V45.373H23.2403V46.2425H25.8V47.6292H21.7556V41.8208H25.8V43.1992H23.2403V44.1012V44.1016Z" fill="#32449C"/>
<path d="M36.1756 41.8213H37.6935L36.0199 47.6296H34.6581L34.1413 46.0218L33.9364 44.6929H33.9118L33.6903 46.0138L33.2309 47.63H31.8689L30.1873 41.8216H31.7131L32.4023 44.6029L32.5497 45.8334H32.5909L32.7304 44.6112L33.3784 42.5769H34.494L35.0929 44.6195L35.2815 45.8338H35.3061L35.4702 44.6195L36.1756 41.8219V41.8213Z" fill="#32449C"/>
<path d="M43.9583 47.6296H42.3833L42.006 46.4645H40.4553L40.0943 47.6296H38.5193L40.5456 41.8213H41.8831L43.9586 47.6296H43.9583ZM41.6533 45.1606L41.2511 43.4623H41.2099L40.7834 45.1606H41.653H41.6533Z" fill="#32449C"/>
<path d="M47.4839 45.7835H47.2215V47.6292H45.7368V41.8208H48.0584C49.2561 41.8208 50.1831 42.3705 50.216 43.7322C50.216 44.8067 49.7812 45.4138 49.0758 45.6354L50.659 47.6292H48.8296L47.4842 45.7835H47.4839ZM48.0827 44.52C49.0097 44.52 49.0097 43.1912 48.0827 43.1912H47.2211V44.52H48.0827Z" fill="#32449C"/>
<path d="M54.1763 45.7835H53.9139V47.6292H52.429V41.8208H54.7509C55.9486 41.8208 56.8756 42.3705 56.9084 43.7322C56.9084 44.8067 56.4737 45.4138 55.7682 45.6354L57.3515 47.6292H55.5221L54.1766 45.7835H54.1763ZM54.7752 44.52C55.7021 44.52 55.7021 43.1912 54.7752 43.1912H53.9136V44.52H54.7752Z" fill="#32449C"/>
<path d="M64.0521 47.6296H62.4771L62.0998 46.4645H60.549L60.188 47.6296H58.613L60.6394 41.8213H61.9769L64.0524 47.6296H64.0521ZM61.7467 45.1606L61.3448 43.4623H61.3037L60.8772 45.1606H61.7464H61.7467Z" fill="#32449C"/>
<path d="M65.8296 41.8213H67.2242L68.6271 44.299L69.1197 45.4641L69.1609 45.4558C69.1526 45.4558 69.0048 44.4548 68.9968 44.4548V41.8213H70.4569V47.6296H68.9719L67.6593 45.3409L67.1508 44.1758L67.1096 44.1841L67.2983 45.308V47.6296H65.8296V41.8213Z" fill="#32449C"/>
<path d="M75.4509 43.2081V47.6298H73.9659V43.2081H72.4238V41.8135H76.9933V43.2081H75.4512H75.4509Z" fill="#32449C"/>
<path d="M80.4534 47.6296V45.3409L78.4268 41.8213H80.1333L81.1835 43.9543L82.2337 41.8213H83.9568L81.9221 45.3409V47.6296H80.4537H80.4534Z" fill="#32449C"/>
<path d="M92.5759 46.4069C92.092 47.3505 91.2142 47.7112 90.4841 47.7112C89.3439 47.7112 88.1951 47.0466 88.1951 45.726V43.7243C88.1951 42.4117 89.3439 41.7388 90.5087 41.7388C91.2228 41.7388 92.0837 42.0423 92.5517 43.0763L91.3537 43.5602C90.9601 42.8384 89.6638 43.0022 89.6638 43.7243V45.726C89.6638 46.4232 90.9764 46.6201 91.2962 45.8164L92.5759 46.4069Z" fill="#32449C"/>
<path d="M94.3621 43.7326C94.3621 42.3951 95.5601 41.7388 96.7657 41.7388C97.9714 41.7388 99.1777 42.4034 99.1777 43.7326V45.7177C99.1777 47.0469 97.98 47.7115 96.774 47.7115C95.568 47.7115 94.3621 47.0469 94.3621 45.7177V43.7326ZM95.8307 45.7177C95.8307 46.1445 96.3067 46.3494 96.774 46.3494C97.2413 46.3494 97.7093 46.1362 97.7093 45.7177V43.7326C97.7093 43.2815 97.2254 43.0763 96.7494 43.0763C96.2735 43.0763 95.8307 43.3058 95.8307 43.7326V45.7177Z" fill="#32449C"/>
<path d="M101.35 41.8213H102.819L104.041 44.6597L105.271 41.8213H106.74V47.6296H105.263L105.272 45.956L105.362 44.7829L105.313 44.7746L104.55 46.7681H103.541L102.761 44.7746L102.72 44.7829L102.819 45.956V47.6296H101.35V41.8213Z" fill="#32449C"/>
<path d="M109.052 41.8213H111.373C112.792 41.8213 113.498 42.8469 113.498 43.8722C113.498 44.8975 112.784 45.9314 111.381 45.9314H110.52V47.6296H109.052V41.8213ZM111.373 44.6268C112.259 44.6351 112.259 43.183 111.373 43.1913H110.52V44.6268H111.373Z" fill="#32449C"/>
<path d="M119.944 47.6296H118.369L117.991 46.4645H116.441L116.08 47.6296H114.505L116.531 41.8213H117.868L119.944 47.6296H119.944ZM117.638 45.1606L117.236 43.4623H117.195L116.769 45.1606H117.638H117.638Z" fill="#32449C"/>
<path d="M121.722 41.8213H123.117L124.52 44.299L125.012 45.4641L125.053 45.4558C125.045 45.4558 124.897 44.4548 124.889 44.4548V41.8213H126.349V47.6296H124.864L123.552 45.3409L123.043 44.1758L123.002 44.1841L123.191 45.308V47.6296H121.722V41.8213Z" fill="#32449C"/>
<path d="M130.154 47.6296V45.3409L128.127 41.8213H129.834L130.884 43.9543L131.934 41.8213H133.657L131.623 45.3409V47.6296H130.154H130.154Z" fill="#32449C"/>
<path d="M129.488 36.8252H10.5681V37.4042H129.488V36.8252Z" fill="#F7941D"/>
</svg>
