<svg width="120" height="48" viewBox="0 0 120 48" fill="none" xmlns="http://www.w3.org/2000/svg">
<path fill-rule="evenodd" clip-rule="evenodd" d="M65.2869 11.9864H54.8084L47.9863 18.8084V29.2051L54.7538 36H65.1778L71.9999 29.1779V18.7539L65.2869 11.9864ZM69.926 28.2502L64.2501 33.9261H55.7361L50.0603 28.2775V19.7362L55.7361 14.0876H64.359L69.9259 19.6817V28.2502H69.926Z" fill="#989AAE"/>
<path fill-rule="evenodd" clip-rule="evenodd" d="M54.8951 21.2641L53.4488 18.3169L51.293 20.3364V27.5677L53.3669 29.6689V22.6285L55.168 26.6399L57.2145 21.2914V32.5068H59.5067V15.4245H57.0782L54.8951 21.2641ZM61.1096 15.4245V32.5068H63.7293L68.6957 27.5677V23.9656H64.8754V26.0396H66.2943C66.6764 25.9849 66.7037 26.4217 66.4306 26.749C66.1579 27.0764 63.4017 29.778 63.4017 29.778V18.1533L66.6216 21.5097V22.3283H68.6956V20.4181L63.7837 15.4245H61.1096Z" fill="#989AAE"/>
</svg>
