<svg width="120" height="48" viewBox="0 0 120 48" fill="none" xmlns="http://www.w3.org/2000/svg">
<path d="M63.3095 25.0733C63.2778 25.0813 63.1508 25.0813 63.0952 25.0813H59V26.0336H63.1667C63.1984 26.0336 63.4444 26.0336 63.4921 26.0257C64.3413 25.9463 64.7302 25.24 64.7302 24.6209C64.7302 23.986 64.3254 23.3035 63.5556 23.2321C63.4048 23.2162 63.2778 23.2162 63.2222 23.2162H60.5C60.381 23.2162 60.246 23.2082 60.1984 23.1924C59.9841 23.1368 59.9048 22.9463 59.9048 22.7876C59.9048 22.6448 59.9841 22.4543 60.2064 22.3908C60.2698 22.3749 60.3413 22.367 60.4921 22.367H64.4206V21.4305H60.4286C60.2619 21.4305 60.1349 21.4384 60.0317 21.4543C59.3492 21.5495 58.873 22.0971 58.873 22.7955C58.873 23.367 59.2302 24.0336 60.0159 24.1448C60.1587 24.1606 60.3571 24.1606 60.4444 24.1606H63.0952C63.1429 24.1606 63.2619 24.1606 63.2857 24.1686C63.5873 24.2082 63.6905 24.4305 63.6905 24.6289C63.6905 24.8194 63.5714 25.0257 63.3095 25.0733ZM55.5476 25.0733C55.5159 25.0813 55.3889 25.0813 55.3413 25.0813H51.2381V26.0336H55.4048C55.4365 26.0336 55.6825 26.0336 55.7302 26.0257C56.5794 25.9463 56.9683 25.24 56.9683 24.6209C56.9683 23.986 56.5635 23.3035 55.7937 23.2321C55.6429 23.2162 55.5159 23.2162 55.4603 23.2162H52.7381C52.619 23.2162 52.4841 23.2082 52.4365 23.1924C52.2222 23.1368 52.1429 22.9463 52.1429 22.7876C52.1429 22.6448 52.2222 22.4543 52.4444 22.3908C52.5079 22.3749 52.5794 22.367 52.7302 22.367H56.6587V21.4305H52.6667C52.5 21.4305 52.373 21.4384 52.2698 21.4543C51.5873 21.5495 51.1111 22.0971 51.1111 22.7955C51.1111 23.367 51.4683 24.0336 52.254 24.1448C52.3968 24.1606 52.5952 24.1606 52.6825 24.1606H55.3333C55.381 24.1606 55.5 24.1606 55.5238 24.1686C55.8254 24.2082 55.9286 24.4305 55.9286 24.6289C55.9286 24.8194 55.8175 25.0257 55.5476 25.0733ZM48.0714 21.3987H49.1032V26.0575H48.0714V21.3987ZM41.3254 21.3987H40V26.0575H41.0317V22.5654L44.4921 26.0575H45.7937V21.3987H44.7619V24.8749L41.3254 21.3987ZM74.2143 26.0575H75.246V22.5654L78.6984 26.0575H80V21.3987H78.9762V24.8749L75.5397 21.3987H74.2143V26.0575ZM68.8413 21.3987L65.9365 26.0575H67.1905L67.7064 25.2241H71.0952L71.6111 26.0575H72.8571L69.9524 21.3987H68.8413ZM70.5635 24.3432H68.2381L69.4048 22.4701L70.5635 24.3432ZM45.7381 18.7559C47.8175 12.6844 53.5476 8.60507 60.0079 8.60507C66.4683 8.60507 72.2063 12.6844 74.2778 18.7559L74.2937 18.8035H78.8413V18.2559L76.9524 18.0336C75.7857 17.8987 75.5397 17.3828 75.2222 16.7321L75.1429 16.5733C72.4127 10.7638 66.4683 7.00189 60.0079 7.00189C53.5397 7.00189 47.6032 10.7638 44.873 16.5892L44.7937 16.7479C44.4762 17.3987 44.2302 17.9146 43.0635 18.0495L41.1746 18.2717V18.8194H45.7143L45.7381 18.7559ZM74.2937 28.6606L74.2778 28.7082C72.1984 34.7797 66.4683 38.8511 60.0079 38.8511C53.5476 38.8511 47.8095 34.7717 45.7381 28.7003L45.7222 28.6527H41.1825V29.2003L43.0714 29.4225C44.2381 29.5575 44.4841 30.0733 44.8016 30.7241L44.881 30.8828C47.6111 36.7082 53.5556 40.4701 60.0159 40.4701C66.4762 40.4701 72.4206 36.7082 75.1508 30.8908L75.2302 30.7321C75.5476 30.0813 75.7937 29.5654 76.9603 29.4305L78.8492 29.2082V28.6606H74.2937Z" fill="#989AAE"/>
</svg>
