<svg width="40" height="40" viewBox="0 0 40 40" fill="none" xmlns="http://www.w3.org/2000/svg">
<path d="M35.5627 9.94887L36 9.673V4H35.0625C16.875 4 4 18.6875 4 35.0625V36H36V34.452L35.5627 34.1761C31.3751 31.5343 28.875 27.0059 28.875 22.0625C28.875 17.1191 31.3751 12.5907 35.5627 9.94887ZM16.8434 32.442C16.5553 31.1737 16.3825 29.8674 16.3299 28.5594L18.2035 28.4842C18.2514 29.6779 18.409 30.8697 18.6718 32.0266L16.8434 32.442ZM18.3831 24.9141L16.5268 24.6499C16.7109 23.3567 17.0158 22.0748 17.4333 20.8398L19.2096 21.4401C18.829 22.5661 18.5509 23.7349 18.3831 24.9141ZM20.6599 18.1767L19.0238 17.2608C19.6603 16.1239 20.4062 15.0381 21.2409 14.0338L22.6829 15.2323C21.9212 16.1487 21.2406 17.1393 20.6599 18.1767ZM25.2077 12.7033L24.0069 11.2632C25.0101 10.4269 26.0947 9.67906 27.2307 9.04069L28.1493 10.6753C27.1129 11.2578 26.1232 11.9401 25.2077 12.7033ZM30.8076 7.44412C32.0418 7.02475 33.3233 6.71775 34.6164 6.53156L34.8835 8.38744C33.7044 8.55712 32.5359 8.83706 31.4107 9.21944L30.8076 7.44412Z" fill="url(#paint0_linear_1137_8145)"/>
<defs>
<linearGradient id="paint0_linear_1137_8145" x1="4" y1="4" x2="42.213" y2="15.6892" gradientUnits="userSpaceOnUse">
<stop stop-color="#2836D7"/>
<stop offset="1" stop-color="#8E93D7"/>
</linearGradient>
</defs>
</svg>
