<svg width="40" height="40" viewBox="0 0 40 40" fill="none" xmlns="http://www.w3.org/2000/svg">
<path d="M20 4C16.8355 4 13.7421 4.93838 11.1109 6.69649C8.4797 8.45459 6.42894 10.9534 5.21793 13.8771C4.00693 16.8007 3.69008 20.0177 4.30744 23.1214C4.92481 26.2251 6.44866 29.0761 8.6863 31.3137C10.9239 33.5513 13.7749 35.0752 16.8786 35.6926C19.9823 36.3099 23.1993 35.9931 26.1229 34.7821C29.0466 33.5711 31.5454 31.5203 33.3035 28.8891C35.0616 26.2579 36 23.1645 36 20C36 17.8988 35.5861 15.8183 34.7821 13.8771C33.978 11.9359 32.7994 10.172 31.3137 8.68629C29.828 7.20055 28.0641 6.022 26.1229 5.21793C24.1817 4.41385 22.1012 4 20 4ZM23.2 15.3102H23.9666C24.2495 15.3102 24.5208 15.4226 24.7208 15.6226C24.9209 15.8227 25.0332 16.094 25.0332 16.3769C25.0332 16.6598 24.9209 16.9311 24.7208 17.1311C24.5208 17.3312 24.2495 17.4436 23.9666 17.4436H23.4588C23.3379 18.6945 22.7558 19.8558 21.8258 20.7012C20.8958 21.5467 19.6846 22.0158 18.4277 22.0174H18.0885L22.1476 26.2969C22.2478 26.3977 22.3269 26.5176 22.3801 26.6494C22.4333 26.7812 22.4597 26.9224 22.4576 27.0645C22.4555 27.2067 22.425 27.347 22.3679 27.4772C22.3108 27.6074 22.2283 27.7249 22.1251 27.8228C22.022 27.9206 21.9003 27.9968 21.7672 28.047C21.6342 28.0971 21.4925 28.1202 21.3504 28.1148C21.2083 28.1093 21.0688 28.0756 20.9399 28.0154C20.8111 27.9553 20.6956 27.87 20.6002 27.7646L14.8331 21.6846C14.6896 21.5333 14.5937 21.3433 14.5571 21.138C14.5205 20.9327 14.5448 20.7212 14.6271 20.5296C14.7095 20.3381 14.8461 20.1748 15.0202 20.0601C15.1943 19.9454 15.3982 19.8842 15.6068 19.8841H18.4277C19.1178 19.8825 19.785 19.6365 20.3109 19.1897C20.8369 18.7429 21.1875 18.1243 21.3006 17.4436H15.6544C15.3715 17.4436 15.1002 17.3312 14.9002 17.1311C14.7001 16.9311 14.5877 16.6598 14.5877 16.3769C14.5877 16.094 14.7001 15.8227 14.9002 15.6226C15.1002 15.4226 15.3715 15.3102 15.6544 15.3102H20.837C20.5693 14.9192 20.2103 14.5993 19.7911 14.3782C19.3719 14.1572 18.9052 14.0416 18.4313 14.0416H15.6103C15.3274 14.0416 15.0561 13.9292 14.8561 13.7292C14.656 13.5291 14.5436 13.2578 14.5436 12.9749C14.5436 12.692 14.656 12.4207 14.8561 12.2207C15.0561 12.0206 15.3274 11.9083 15.6103 11.9083H18.4313C18.4711 11.9083 18.5088 11.9132 18.5479 11.914H23.9701C24.253 11.914 24.5243 12.0263 24.7244 12.2264C24.9244 12.4264 25.0368 12.6977 25.0368 12.9806C25.0368 13.2635 24.9244 13.5348 24.7244 13.7349C24.5243 13.9349 24.253 14.0473 23.9701 14.0473H22.5536C22.8287 14.4355 23.0476 14.8607 23.2036 15.3102H23.2Z" fill="url(#paint0_linear_1137_8127)"/>
<defs>
<linearGradient id="paint0_linear_1137_8127" x1="4" y1="4" x2="42.213" y2="15.6892" gradientUnits="userSpaceOnUse">
<stop stop-color="#2836D7"/>
<stop offset="1" stop-color="#8E93D7"/>
</linearGradient>
</defs>
</svg>
