<svg width="119" height="48" viewBox="0 0 119 48" fill="none" xmlns="http://www.w3.org/2000/svg">
<g clip-path="url(#clip0_1328_1971)">
<path d="M19.3083 31.8358C17.9311 30.9734 16.917 27.9966 16.917 24.4603C16.917 24.3305 16.9175 24.2023 16.9208 24.0747L16.9224 24.0764C13.0926 23.4746 10.325 21.8252 10.2544 19.8752L10.2429 19.8977C9.30538 21.0624 8.77038 22.409 8.77038 23.8437C8.77038 28.0656 13.4047 31.5248 19.2831 31.8309L19.3083 31.8358ZM7 24.152C7 19.4278 12.879 15.5974 20.1314 15.5974C27.3837 15.5974 33.2627 19.4278 33.2627 24.152C33.2627 28.8761 27.3837 32.7065 20.1314 32.7065C12.879 32.7065 7 28.8761 7 24.152ZM20.1314 16.8317C21.5316 16.8317 22.722 18.9553 23.1634 21.9189L23.165 21.9145C25.8888 21.4906 27.7961 20.5121 27.7961 19.3742C27.7961 17.8464 24.3643 16.6099 20.1314 16.6099C15.8984 16.6099 12.4667 17.8469 12.4667 19.3742C12.4667 20.5121 14.3734 21.4901 17.0977 21.9145L17.0993 21.9189C17.5407 18.9558 18.7317 16.8317 20.1314 16.8317V16.8317ZM20.979 31.8309C26.8575 31.5248 31.4923 28.0656 31.4923 23.8437C31.4923 22.409 30.9568 21.0624 30.0198 19.8977L30.0083 19.8752C29.9377 21.8252 27.1707 23.4746 23.3403 24.0764L23.3419 24.0747C23.3447 24.2023 23.3457 24.3305 23.3457 24.4603C23.3457 27.9966 22.3305 30.9734 20.9544 31.8358L20.979 31.8309ZM20.1314 22.139C20.7589 22.139 21.3684 22.1122 21.9516 22.0607L21.951 22.0612C21.6608 20.1616 20.9555 18.8211 20.1314 18.8211C19.3072 18.8211 18.6025 20.1616 18.3117 22.0612L18.3111 22.0607C18.8943 22.1122 19.5038 22.139 20.1314 22.139V22.139ZM20.1314 29.1734C21.1855 29.1734 22.0452 26.9797 22.0912 24.2286L22.0967 24.2303C20.7892 24.3507 19.4735 24.3507 18.166 24.2303L18.1721 24.2286C18.2175 26.9803 19.0772 29.1734 20.1314 29.1734ZM74.005 24.152C74.005 20.5411 76.9324 17.6142 80.5427 17.6142C84.1547 17.6142 87.0816 20.5417 87.0816 24.152C87.0816 27.7634 84.1541 30.6897 80.5427 30.6897C76.9324 30.6897 74.005 27.7628 74.005 24.152ZM80.5427 28.2923C82.5595 28.2923 84.1941 26.4382 84.1941 24.1514C84.1941 21.8652 82.5595 20.0105 80.5427 20.0105C78.527 20.0105 76.893 21.8646 76.893 24.1514C76.893 26.4382 78.5276 28.2923 80.5427 28.2923ZM94.5004 20.338V30.3929H91.746V20.338H91.7553H87.903V18.0643H98.3434V20.3374H94.5004V20.338ZM101.676 27.6193L101.673 27.6221L100.616 30.3935H97.3988L102.485 18.0649H105.913L111 30.3935H107.782L106.725 27.6221L106.723 27.6193H104.2H101.676ZM104.2 25.5385H105.933L105.932 25.539L104.211 21.0268H104.187L102.466 25.539L102.465 25.5385H104.2ZM43.7202 20.338V30.3929H40.9652V20.338H40.9745H37.1216V18.0643H47.5626V20.3374H43.7202V20.338ZM48.2679 24.152C48.2679 20.5411 51.1954 17.6142 54.8068 17.6142C58.4176 17.6142 61.3451 20.5417 61.3451 24.152C61.3451 27.7634 58.4176 30.6897 54.8068 30.6897C51.1954 30.6897 48.2679 27.7628 48.2679 24.152ZM54.8068 28.2923C56.8225 28.2923 58.4576 26.4382 58.4576 24.1514C58.4576 21.8652 56.823 20.0105 54.8068 20.0105C52.7905 20.0105 51.156 21.8646 51.156 24.1514C51.156 26.4382 52.7905 28.2923 54.8068 28.2923ZM67.6748 30.3929H69.0717V25.7115L73.8774 18.0643H70.6608L67.6748 23.2462L64.6893 18.0643H61.4716L66.2778 25.7115V30.3924H67.6748V30.3929Z" fill="#989AAE"/>
</g>
<defs>
<clipPath id="clip0_1328_1971">
<rect width="104" height="18.304" fill="white" transform="translate(7 15)"/>
</clipPath>
</defs>
</svg>
